<svg viewBox="0 0 1024 1024" class="icon" version="1.1" xmlns="http://www.w3.org/2000/svg" fill="rgba(0,0,0,0)">


    <g id="SVGRepo_iconCarrier">

        <path
            d="M874.666667 896H277.333333c-46.933333 0-85.333333-38.4-85.333333-85.333333V384c0-46.933333 38.4-85.333333 85.333333-85.333333h597.333334c46.933333 0 85.333333 38.4 85.333333 85.333333v426.666667c0 46.933333-38.4 85.333333-85.333333 85.333333z"
            fill="#5661f5" />

        <path
            d="M746.666667 768H149.333333c-46.933333 0-85.333333-38.4-85.333333-85.333333V256c0-46.933333 38.4-85.333333 85.333333-85.333333h597.333334c46.933333 0 85.333333 38.4 85.333333 85.333333v426.666667c0 46.933333-38.4 85.333333-85.333333 85.333333z"
            fill="#8aadff" />

        <path d="M640 341.333333m-64 0a64 64 0 1 0 128 0 64 64 0 1 0-128 0Z" fill="#FFF9C4" />

        <path d="M362.666667 381.866667L170.666667 661.333333h384z" fill="#298a00" />

        <path d="M597.333333 501.333333L469.333333 661.333333h256z" fill="#ff3d3d" />

    </g>

</svg>